<?xml version="1.0" encoding="utf-8"?><!-- Uploaded to: SVG Repo, www.svgrepo.com, Generator: SVG Repo Mixer Tools -->
<svg width="800px" height="800px" viewBox="0 0 24 24" id="Layer_1" data-name="Layer 1" xmlns="http://www.w3.org/2000/svg"><defs><style>.cls-1{fill:none;stroke:#020202;stroke-miterlimit:10;stroke-width:1.92px;}</style></defs><circle class="cls-1" cx="12" cy="12" r="9.58"/><line class="cls-1" x1="12" y1="0.5" x2="12" y2="5.29"/><line class="cls-1" x1="12" y1="18.71" x2="12" y2="23.5"/><line class="cls-1" x1="23.5" y1="12" x2="18.71" y2="12"/><line class="cls-1" x1="5.29" y1="12" x2="0.5" y2="12"/><path class="cls-1" d="M9.12,14.87h3.36a1.44,1.44,0,0,0,1.44-1.43h0A1.44,1.44,0,0,0,12.48,12h-1a1.44,1.44,0,0,1-1.44-1.44h0a1.45,1.45,0,0,1,1.44-1.44h3.35"/><line class="cls-1" x1="12" y1="7.21" x2="12" y2="9.13"/><line class="cls-1" x1="12" y1="14.88" x2="12" y2="16.79"/></svg>