<?xml version="1.0" encoding="UTF-8" standalone="no"?>
<!-- Created with Inkscape (http://www.inkscape.org/) -->

<svg
   width="512"
   height="512"
   viewBox="0 0 135.46666 135.46667"
   version="1.1"
   id="svg1"
   inkscape:version="1.3.2 (091e20e, 2023-11-25, custom)"
   sodipodi:docname="owly-header.svg"
   inkscape:export-filename="owly-logo.svg"
   inkscape:export-xdpi="96"
   inkscape:export-ydpi="96"
   xmlns:inkscape="http://www.inkscape.org/namespaces/inkscape"
   xmlns:sodipodi="http://sodipodi.sourceforge.net/DTD/sodipodi-0.dtd"
   xmlns="http://www.w3.org/2000/svg"
   xmlns:svg="http://www.w3.org/2000/svg">
  <sodipodi:namedview
     id="namedview1"
     pagecolor="#505050"
     bordercolor="#eeeeee"
     borderopacity="1"
     inkscape:showpageshadow="0"
     inkscape:pageopacity="0"
     inkscape:pagecheckerboard="0"
     inkscape:deskcolor="#505050"
     inkscape:document-units="mm"
     inkscape:zoom="1.4142136"
     inkscape:cx="194.80792"
     inkscape:cy="181.72644"
     inkscape:window-width="3200"
     inkscape:window-height="1960"
     inkscape:window-x="-12"
     inkscape:window-y="-12"
     inkscape:window-maximized="1"
     inkscape:current-layer="layer1" />
  <defs
     id="defs1">
    <inkscape:path-effect
       effect="fillet_chamfer"
       id="path-effect10"
       is_visible="true"
       lpeversion="1"
       nodesatellites_param="F,0,0,1,0,0,0,1 @ F,0,0,1,0,0,0,1 @ F,0,0,1,0,0,0,1 @ F,0,0,1,0,0,0,1 @ F,0,0,1,0,0,0,1 @ F,0,0,1,0,0,0,1 @ F,0,0,1,0,0,0,1 @ F,0,0,1,0,0,0,1 @ F,0,0,1,0,0,0,1 @ F,0,0,1,0,0,0,1 @ F,0,0,1,0,0,0,1 @ F,0,0,1,0,0,0,1 @ F,0,0,1,0,0,0,1 @ F,0,0,1,0,0,0,1 @ F,0,0,1,0,0,0,1 @ F,0,0,1,0,0,0,1 @ F,0,0,1,0,0,0,1 @ F,0,0,1,0,1.4167899,0,1 @ F,0,0,1,0,1.3562344,0,1 @ F,0,0,1,0,1.3562344,0,1 @ F,0,0,1,0,0,0,1 @ F,0,0,1,0,0,0,1 @ F,0,0,1,0,0,0,1 @ F,0,0,1,0,0,0,1 @ F,0,0,1,0,0,0,1 @ F,0,0,1,0,0,0,1 @ F,0,0,1,0,0,0,1 @ F,0,0,1,0,0,0,1 @ F,0,0,1,0,0,0,1 @ F,0,0,1,0,0,0,1 @ F,0,0,1,0,0.7250697,0,1 @ F,0,0,1,0,1.3751774,0,1 @ F,0,0,1,0,0,0,1 @ F,0,0,1,0,0,0,1 @ F,0,0,1,0,0,0,1 @ F,0,0,1,0,0,0,1"
       radius="0"
       unit="px"
       method="auto"
       mode="F"
       chamfer_steps="1"
       flexible="false"
       use_knot_distance="true"
       apply_no_radius="true"
       apply_with_radius="true"
       only_selected="false"
       hide_knots="false" />
    <inkscape:path-effect
       effect="fillet_chamfer"
       id="path-effect9"
       is_visible="true"
       lpeversion="1"
       nodesatellites_param="F,0,0,1,0,0,0,1 @ F,0,0,1,0,0,0,1 @ F,0,0,1,0,0,0,1 @ F,0,0,1,0,0,0,1 @ F,0,0,1,0,0,0,1 @ F,0,0,1,0,0,0,1 @ F,0,0,1,0,0,0,1 @ F,0,0,1,0,0,0,1 @ F,0,0,1,0,0,0,1 @ F,0,0,1,0,0,0,1 @ F,0,0,1,0,0,0,1 @ F,0,0,1,0,0,0,1 @ F,0,0,1,0,0,0,1 @ F,0,0,1,0,0,0,1 @ F,0,0,1,0,0,0,1 @ F,0,0,1,0,0,0,1 @ F,0,0,1,0,0,0,1 @ F,0,0,1,0,0,0,1 @ F,0,0,1,0,0.9928217,0,1 @ F,0,0,1,0,0,0,1 @ F,0,0,1,0,0,0,1 @ F,0,0,1,0,0,0,1 @ F,0,0,1,0,0,0,1 @ F,0,0,1,0,0,0,1 @ F,0,0,1,0,0,0,1 @ F,0,0,1,0,0,0,1 @ F,0,0,1,0,0,0,1 @ F,0,0,1,0,0,0,1 @ F,0,0,1,0,0,0,1 @ F,0,0,1,0,0,0,1 @ F,0,0,1,0,0,0,1 @ F,0,0,1,0,0,0,1 @ F,0,0,1,0,0,0,1 @ F,0,0,1,0,0,0,1 @ F,0,0,1,0,0,0,1 @ F,0,0,1,0,0,0,1"
       radius="0"
       unit="px"
       method="auto"
       mode="F"
       chamfer_steps="1"
       flexible="false"
       use_knot_distance="true"
       apply_no_radius="true"
       apply_with_radius="true"
       only_selected="false"
       hide_knots="false" />
  </defs>
  <g
     inkscape:label="Layer 1"
     inkscape:groupmode="layer"
     id="layer1">
    <path
       id="text2"
       style="font-size:180.622px;line-height:1.25;font-family:'Gochi Hand';-inkscape-font-specification:'Gochi Hand, Normal';fill:#000000;fill-opacity:1;stroke-width:0.264584"
       d="m 72.202311,17.067692 c -4.245423,0 -8.676968,0.483853 -13.294796,1.452108 -4.617828,0.968255 -9.310386,2.346051 -14.077176,4.133598 -4.69231,1.787546 -9.422007,3.985007 -14.188798,6.591845 -4.69231,2.606839 -9.235275,5.548649 -13.629659,8.825818 -1.787547,1.415141 -3.165861,2.979155 -4.134115,4.69222 -0.893774,1.713065 -1.340487,3.426156 -1.340487,5.139221 0,2.383395 0.521511,4.208423 1.564246,5.474602 1.117217,1.266179 2.345937,2.308683 3.686597,3.127974 1.340659,0.819293 2.532239,1.564159 3.574975,2.234489 1.117216,0.67033 1.675867,1.638553 1.675867,2.904732 0,1.862027 -0.148559,3.575118 -0.446485,5.139222 -0.297923,1.564103 -0.447001,2.979556 -0.447001,4.245735 0,6.852261 1.228721,13.183113 3.686597,18.992639 2.457876,5.735045 5.884057,10.725235 10.278442,14.970665 4.394385,4.17094 9.607936,7.44804 15.640906,9.83144 6.032969,2.38338 12.587694,3.57497 19.663399,3.57497 2.225973,0 4.416509,-0.13102 6.571747,-0.3927 0.776745,-0.0943 1.403994,-0.82401 1.403994,-1.60648 l 0,-17.409205 c 0,-0.749027 -0.592091,-1.219857 -1.329582,-1.08926 -0.953914,0.168921 -1.898664,0.286084 -2.833103,0.344661 -0.747436,0.04685 -1.962908,0.04655 -2.711095,0.01247 -3.65748,-0.1666 -7.078475,-1.012723 -10.263159,-2.538717 -3.500612,-1.713065 -6.554359,-4.059086 -9.161197,-7.03833 -2.606838,-3.053725 -4.655222,-6.628983 -6.144845,-10.725444 -1.415141,-4.170941 -2.122868,-8.677282 -2.122868,-13.518555 0,-8.863251 2.197462,-15.41746 6.591846,-19.662882 4.394385,-4.319904 10.725237,-6.479708 18.992639,-6.479708 4.543347,0 8.751534,0.819147 12.624552,2.457731 3.947498,1.638585 7.336539,3.910325 10.166822,6.815088 2.904763,2.830281 5.176504,6.181665 6.815088,10.054684 1.638588,3.873017 2.457728,8.044065 2.457728,12.512931 0,0.05685 -5.5e-4,0.113457 -0.001,0.169874 -0.007,0.400351 0.30183,0.724645 0.70228,0.724645 h 20.24723 c 0.75949,0 1.42138,-0.614064 1.45776,-1.372666 0.0315,-0.656457 0.0502,-1.315846 0.0502,-1.979584 0,-7.001225 -1.3778,-13.555433 -4.1336,-19.662883 C 117.11447,41.832709 113.42728,36.470082 108.73497,31.926733 104.11714,27.308905 98.643091,23.696508 92.312195,21.089669 86.055782,18.408349 79.352497,17.067692 72.202311,17.067692 Z"
       inkscape:path-effect="#path-effect10"
       inkscape:original-d="M 72.202311 17.067692 C 67.956888 17.067692 63.525343 17.551545 58.907515 18.5198 C 54.289687 19.488055 49.597129 20.865851 44.830339 22.653398 C 40.138029 24.440944 35.408332 26.638405 30.641541 29.245243 C 25.949231 31.852082 21.406266 34.793892 17.011882 38.071061 C 15.224335 39.486202 13.846021 41.050216 12.877767 42.763281 C 11.983993 44.476346 11.53728 46.189437 11.53728 47.902502 C 11.53728 50.285897 12.058791 52.110925 13.101526 53.377104 C 14.218743 54.643283 15.447463 55.685787 16.788123 56.505078 C 18.128782 57.324371 19.320362 58.069237 20.363098 58.739567 C 21.480314 59.409897 22.038965 60.37812 22.038965 61.644299 C 22.038965 63.506326 21.890406 65.219417 21.59248 66.783521 C 21.294557 68.347624 21.145479 69.763077 21.145479 71.029256 C 21.145479 77.881517 22.3742 84.212369 24.832076 90.021895 C 27.289952 95.75694 30.716133 100.74713 35.110518 104.99256 C 39.504903 109.1635 44.718454 112.4406 50.751424 114.824 C 56.784393 117.20738 63.339118 118.39897 70.414823 118.39897 C 73.125885 118.39897 75.784381 118.20463 78.390564 117.81658 L 78.390564 97.634351 C 76.515614 98.053995 74.673449 98.289091 72.872555 98.289091 C 68.701613 98.289091 64.828719 97.432804 61.253625 95.719739 C 57.753013 94.006674 54.699266 91.660653 52.092428 88.681409 C 49.48559 85.627684 47.437206 82.052426 45.947583 77.955965 C 44.532442 73.785024 43.824715 69.278683 43.824715 64.43741 C 43.824715 55.574159 46.022177 49.01995 50.416561 44.774528 C 54.810946 40.454624 61.141798 38.29482 69.4092 38.29482 C 73.952547 38.29482 78.160734 39.113967 82.033752 40.752551 C 85.98125 42.391136 89.370291 44.662876 92.200574 47.567639 C 95.105337 50.39792 97.377078 53.749304 99.015662 57.622323 C 100.65425 61.49534 101.47339 65.666388 101.47339 70.135254 C 101.47339 70.437203 101.4579 70.732043 101.4491 71.029773 L 123.79658 71.029773 C 123.87525 69.920273 123.92939 68.805176 123.92939 67.677523 C 123.92939 60.676298 122.55159 54.12209 119.79579 48.01464 C 117.11447 41.832709 113.42728 36.470082 108.73497 31.926733 C 104.11714 27.308905 98.643091 23.696508 92.312195 21.089669 C 86.055782 18.408349 79.352497 17.067692 72.202311 17.067692 z " />
    <text
       xml:space="preserve"
       style="font-style:normal;font-variant:normal;font-weight:normal;font-stretch:normal;font-size:76.4728px;line-height:1.25;font-family:'Gochi Hand';-inkscape-font-specification:'Gochi Hand, Normal';font-variant-ligatures:normal;font-variant-caps:normal;font-variant-numeric:normal;font-variant-east-asian:normal;text-decoration-color:#000000;fill:#000000;stroke-width:0.264583;-inkscape-stroke:none;stop-color:#000000;fill-opacity:1"
       x="81.13253"
       y="117.55003"
       id="text10"><tspan
         sodipodi:role="line"
         id="tspan10"
         style="font-style:normal;font-variant:normal;font-weight:normal;font-stretch:normal;font-size:76.4728px;font-family:'Gochi Hand';-inkscape-font-specification:'Gochi Hand, Normal';font-variant-ligatures:normal;font-variant-caps:normal;font-variant-numeric:normal;font-variant-east-asian:normal;stroke-width:0.264583;fill:#000000;fill-opacity:1"
         x="81.13253"
         y="117.55003">H</tspan></text>
  </g>
</svg>
